<svg width="36" height="36" viewBox="0 0 36 36" fill="none" xmlns="http://www.w3.org/2000/svg">
<rect width="36" height="36" fill="white"/>
<path d="M14.5002 20.9967H20.5002V31.4967H14.5002V20.9967Z" fill="#7D7D7D"/>
<path d="M30.1302 15.2668L18.5652 3.44684C18.4257 3.30625 18.2598 3.19466 18.077 3.1185C17.8943 3.04235 17.6982 3.00314 17.5002 3.00314C17.3022 3.00314 17.1061 3.04235 16.9233 3.1185C16.7405 3.19466 16.5746 3.30625 16.4352 3.44684L4.87017 15.2818C4.59033 15.5639 4.36931 15.8988 4.21997 16.2671C4.07062 16.6353 3.99591 17.0295 4.00017 17.4268V29.9968C3.99901 30.7647 4.29233 31.5038 4.81973 32.0619C5.34714 32.62 6.06846 32.9546 6.83517 32.9968H11.5002V19.4968C11.5002 19.099 11.6582 18.7175 11.9395 18.4362C12.2208 18.1549 12.6023 17.9968 13.0002 17.9968H22.0002C22.398 17.9968 22.7795 18.1549 23.0608 18.4362C23.3421 18.7175 23.5002 19.099 23.5002 19.4968V32.9968H28.1652C28.9319 32.9546 29.6532 32.62 30.1806 32.0619C30.708 31.5038 31.0013 30.7647 31.0002 29.9968V17.4268C31.0014 16.6212 30.6894 15.8467 30.1302 15.2668Z" fill="#7D7D7D"/>
</svg>
