<svg width="36" height="36" viewBox="0 0 36 36" fill="none" xmlns="http://www.w3.org/2000/svg">
<path d="M6 12C6.82843 12 7.5 11.3284 7.5 10.5C7.5 9.67157 6.82843 9 6 9C5.17157 9 4.5 9.67157 4.5 10.5C4.5 11.3284 5.17157 12 6 12Z" fill="white"/>
<path d="M6 19.5C6.82843 19.5 7.5 18.8284 7.5 18C7.5 17.1716 6.82843 16.5 6 16.5C5.17157 16.5 4.5 17.1716 4.5 18C4.5 18.8284 5.17157 19.5 6 19.5Z" fill="white"/>
<path d="M6 27C6.82843 27 7.5 26.3284 7.5 25.5C7.5 24.6715 6.82843 24 6 24C5.17157 24 4.5 24.6715 4.5 25.5C4.5 26.3284 5.17157 27 6 27Z" fill="white"/>
<path d="M30.09 16.5H11.91C11.1313 16.5 10.5 17.1313 10.5 17.91V18.09C10.5 18.8687 11.1313 19.5 11.91 19.5H30.09C30.8687 19.5 31.5 18.8687 31.5 18.09V17.91C31.5 17.1313 30.8687 16.5 30.09 16.5Z" fill="white"/>
<path d="M30.09 24H11.91C11.1313 24 10.5 24.6313 10.5 25.41V25.59C10.5 26.3687 11.1313 27 11.91 27H30.09C30.8687 27 31.5 26.3687 31.5 25.59V25.41C31.5 24.6313 30.8687 24 30.09 24Z" fill="white"/>
<path d="M30.09 9H11.91C11.1313 9 10.5 9.63128 10.5 10.41V10.59C10.5 11.3687 11.1313 12 11.91 12H30.09C30.8687 12 31.5 11.3687 31.5 10.59V10.41C31.5 9.63128 30.8687 9 30.09 9Z" fill="white"/>
</svg>
